<svg xmlns="http://www.w3.org/2000/svg" xmlns:xlink="http://www.w3.org/1999/xlink" width="3840" zoomAndPan="magnify" viewBox="0 0 2880 1619.99993" height="2160" preserveAspectRatio="xMidYMid meet" version="1.0"><rect x="-288" width="3456" fill="#ffffff" y="-161.999993" height="1943.999916" fill-opacity="1"/><rect x="-288" width="3456" fill="#ffffff" y="-161.999993" height="1943.999916" fill-opacity="1"/><path fill="#901a1c" d="M 1901.546875 1044.585938 C 1901.546875 771.664062 2071.042969 549.152344 2355.941406 549.152344 C 2640.84375 549.152344 2812.949219 771.664062 2812.949219 1044.585938 C 2812.949219 1317.507812 2640.726562 1540.019531 2355.941406 1540.019531 C 2071.160156 1540.019531 1901.546875 1317.507812 1901.546875 1044.585938 Z M 2355.824219 1524.128906 C 2561.140625 1524.128906 2700.269531 1336.011719 2700.269531 1044.585938 C 2700.269531 753.160156 2561.140625 565.046875 2355.824219 565.046875 C 2150.511719 565.046875 2014.109375 753.160156 2014.109375 1044.585938 C 2014.109375 1336.011719 2150.511719 1524.128906 2355.824219 1524.128906 Z M 2355.824219 1524.128906 " fill-opacity="1" fill-rule="nonzero"/><path fill="#901a1c" d="M 2624.832031 157.144531 C 2574.660156 327.585938 2459.371094 429.828125 2308.023438 429.828125 C 2202.816406 429.828125 2115.757812 380.371094 2055.859375 292.953125 C 2028.933594 296.273438 2001.773438 299.003906 1974.613281 300.902344 C 2052.539062 390.332031 2166.046875 445.722656 2308.144531 445.722656 C 2529.113281 445.722656 2682.238281 311.695312 2739.765625 124.171875 C 2701.453125 134.847656 2663.144531 145.878906 2624.953125 157.144531 Z M 2624.832031 157.144531 " fill-opacity="1" fill-rule="nonzero"/></svg>