<svg xmlns="http://www.w3.org/2000/svg" xmlns:xlink="http://www.w3.org/1999/xlink" width="512" zoomAndPan="magnify" viewBox="0 0 384 383.999986" height="512" preserveAspectRatio="xMidYMid meet" version="1.0"><path fill="#830325" d="M 88.117188 251.664062 C 88.117188 186.941406 128.3125 134.175781 195.875 134.175781 C 263.441406 134.175781 304.253906 186.941406 304.253906 251.664062 C 304.253906 316.386719 263.414062 369.15625 195.875 369.15625 C 128.339844 369.15625 88.117188 316.386719 88.117188 251.664062 Z M 195.847656 365.386719 C 244.539062 365.386719 277.53125 320.777344 277.53125 251.664062 C 277.53125 182.554688 244.539062 137.945312 195.847656 137.945312 C 147.160156 137.945312 114.8125 182.554688 114.8125 251.664062 C 114.8125 320.777344 147.160156 365.386719 195.847656 365.386719 Z M 195.847656 365.386719 " fill-opacity="1" fill-rule="nonzero"/><path fill="#830325" d="M 259.644531 41.210938 C 247.746094 81.632812 220.40625 105.878906 184.511719 105.878906 C 159.5625 105.878906 138.917969 94.148438 124.710938 73.417969 C 118.328125 74.207031 111.886719 74.851562 105.445312 75.300781 C 123.925781 96.511719 150.84375 109.648438 184.542969 109.648438 C 236.945312 109.648438 273.257812 77.863281 286.898438 33.390625 C 277.8125 35.921875 268.730469 38.539062 259.671875 41.210938 Z M 259.644531 41.210938 " fill-opacity="1" fill-rule="nonzero"/></svg>